<?xml version="1.0" encoding="utf-8"?>
<!-- Generator: Adobe Illustrator 23.0.1, SVG Export Plug-In . SVG Version: 6.00 Build 0)  -->
<svg version="1.1" id="Layer_1" xmlns="http://www.w3.org/2000/svg" xmlns:xlink="http://www.w3.org/1999/xlink" x="0px" y="0px"
	 viewBox="0 0 541.8 287" style="enable-background:new 0 0 541.8 287;" xml:space="preserve">
<style type="text/css">
	.st0{opacity:0.54;}
	.st1{fill:none;stroke:#000000;stroke-width:0.25;stroke-miterlimit:10;}
	.st2{fill:none;stroke:#000000;stroke-width:0.25;stroke-miterlimit:10;stroke-dasharray:2.9919,2.9919;}
	.st3{fill:none;stroke:#000000;stroke-width:0.25;stroke-miterlimit:10;stroke-dasharray:2.756,2.756;}
	.st4{fill:none;stroke:#000000;stroke-width:0.25;stroke-miterlimit:10;stroke-dasharray:3.0237,3.0237;}
	.st5{fill:none;stroke:#000000;stroke-width:0.25;stroke-miterlimit:10;stroke-dasharray:3.02,3.02;}
	.st6{fill:none;stroke:#000000;stroke-width:0.25;stroke-miterlimit:10;stroke-dasharray:3.0102,3.0102;}
	.st7{fill:none;stroke:#000000;stroke-width:0.25;stroke-miterlimit:10;stroke-dasharray:2.9708,2.9708;}
	.st8{fill:none;stroke:#000000;stroke-width:0.25;stroke-miterlimit:10;stroke-dasharray:2.9974,2.9974;}
	.st9{opacity:0.55;fill:none;stroke:#000000;stroke-width:0.5;stroke-miterlimit:10;enable-background:new    ;}
	.st10{fill:none;}
	.st11{opacity:0.55;enable-background:new    ;}
	.st12{font-family:'SabonNextLTPro-ExtraBold';}
	.st13{font-size:10px;}
	.st14{opacity:0.6;fill:none;stroke:#000000;stroke-width:5;stroke-linecap:round;stroke-miterlimit:10;enable-background:new    ;}
	.st15{fill:none;stroke:#E3A15D;stroke-width:5;stroke-linecap:round;stroke-miterlimit:10;}
	.st16{fill:none;stroke:#000000;stroke-width:0.25;stroke-miterlimit:10;stroke-dasharray:2.5414,2.5414;}
	.st17{fill:none;stroke:#000000;stroke-width:0.25;stroke-miterlimit:10;stroke-dasharray:3.0277,3.0277;}
	.st18{fill:none;stroke:#000000;stroke-width:0.25;stroke-miterlimit:10;stroke-dasharray:2.9061,2.9061;}
	.st19{fill:none;stroke:#726D6E;stroke-width:5;stroke-linecap:round;stroke-miterlimit:10;}
	.st20{fill:none;stroke:#000000;stroke-width:0.25;stroke-miterlimit:10;stroke-dasharray:3.0196,3.0196;}
	.st21{fill:none;stroke:#000000;stroke-width:0.25;stroke-miterlimit:10;stroke-dasharray:2.4406,2.4406;}
	.st22{fill:none;stroke:#000000;stroke-width:0.25;stroke-miterlimit:10;stroke-dasharray:3.0662,3.0662;}
	.st23{opacity:0.6;enable-background:new    ;}
	.st24{font-family:'SabonLTStd-Roman';}
	.st25{font-size:6px;}
</style>
<g>
	
		<image style="overflow:visible;enable-background:new    ;" width="4075" height="1767" xlink:href="43CDC60737A6F29E.png"  transform="matrix(-8.786176e-08 6.590000e-02 -6.590000e-02 -8.786176e-08 127.8353 8.7323)">
	</image>
	<g class="st0">
		<g>
			<line class="st1" x1="98" y1="184.9" x2="99.5" y2="184.9"/>
			<line class="st2" x1="102.5" y1="184.9" x2="501.9" y2="184.9"/>
			<line class="st1" x1="503.4" y1="184.9" x2="504.9" y2="184.9"/>
			<g>
				<path d="M98.1,186.7c-1,0-1.9-0.8-1.9-1.9s0.8-1.9,1.9-1.9s1.9,0.8,1.9,1.9S99.1,186.7,98.1,186.7z"/>
			</g>
		</g>
	</g>
	<g class="st0">
		<g>
			<line class="st1" x1="121.7" y1="63.2" x2="123.2" y2="63.2"/>
			<line class="st3" x1="126" y1="63.2" x2="152.2" y2="63.2"/>
			<line class="st1" x1="153.6" y1="63.2" x2="155.1" y2="63.2"/>
			<g>
				<path d="M121.8,65.1c-1,0-1.9-0.8-1.9-1.9s0.8-1.9,1.9-1.9s1.9,0.8,1.9,1.9C123.7,64.3,122.9,65.1,121.8,65.1z"/>
			</g>
		</g>
	</g>
	<g class="st0">
		<g>
			<line class="st1" x1="76" y1="100.1" x2="77.5" y2="100.1"/>
			<line class="st4" x1="80.5" y1="100.1" x2="441.9" y2="100.1"/>
			<line class="st1" x1="443.4" y1="100.1" x2="444.9" y2="100.1"/>
			<g>
				<path d="M76.1,102c-1,0-1.9-0.8-1.9-1.9s0.8-1.9,1.9-1.9s1.9,0.8,1.9,1.9S77.1,102,76.1,102z"/>
			</g>
		</g>
	</g>
	<g class="st0">
		<g>
			<line class="st1" x1="79.5" y1="82.9" x2="81" y2="82.9"/>
			<line class="st5" x1="84.1" y1="82.9" x2="457" y2="82.9"/>
			<line class="st1" x1="458.5" y1="82.9" x2="460" y2="82.9"/>
		</g>
	</g>
	<g class="st0">
		<g>
			<line class="st1" x1="87" y1="157.9" x2="88.5" y2="157.9"/>
			<line class="st6" x1="91.5" y1="157.9" x2="487.4" y2="157.9"/>
			<line class="st1" x1="488.9" y1="157.9" x2="490.4" y2="157.9"/>
			<g>
				<path d="M87.1,159.8c-1,0-1.9-0.8-1.9-1.9s0.8-1.9,1.9-1.9s1.9,0.8,1.9,1.9S88.1,159.8,87.1,159.8z"/>
			</g>
		</g>
	</g>
	<g class="st0">
		<g>
			<line class="st1" x1="79.9" y1="198.7" x2="81.4" y2="198.7"/>
			<line class="st7" x1="84.4" y1="198.7" x2="320.5" y2="198.7"/>
			<line class="st1" x1="322" y1="198.7" x2="323.5" y2="198.7"/>
			<g>
				<path d="M80,200.6c-1,0-1.9-0.8-1.9-1.9s0.8-1.9,1.9-1.9s1.9,0.8,1.9,1.9S81,200.6,80,200.6z"/>
			</g>
		</g>
	</g>
	<g class="st0">
		<g>
			<line class="st1" x1="76" y1="230.2" x2="77.5" y2="230.2"/>
			<line class="st8" x1="80.5" y1="230.2" x2="426.7" y2="230.2"/>
			<line class="st1" x1="428.2" y1="230.2" x2="429.7" y2="230.2"/>
			<g>
				<path d="M76.1,232.1c-1,0-1.9-0.8-1.9-1.9s0.8-1.9,1.9-1.9s1.9,0.8,1.9,1.9S77.1,232.1,76.1,232.1z"/>
			</g>
		</g>
	</g>
	<line class="st9" x1="156.8" y1="263.1" x2="521.6" y2="263.1"/>
	<line class="st9" x1="156.8" y1="260.2" x2="156.8" y2="265.9"/>
	<line class="st9" x1="187.2" y1="260.2" x2="187.2" y2="265.9"/>
	<line class="st9" x1="217.6" y1="260.2" x2="217.6" y2="265.9"/>
	<line class="st9" x1="248" y1="260.2" x2="248" y2="265.9"/>
	<line class="st9" x1="278.4" y1="260.2" x2="278.4" y2="265.9"/>
	<line class="st9" x1="308.8" y1="260.2" x2="308.8" y2="265.9"/>
	<line class="st9" x1="339.2" y1="260.2" x2="339.2" y2="265.9"/>
	<line class="st9" x1="369.6" y1="260.2" x2="369.6" y2="265.9"/>
	<line class="st9" x1="400" y1="260.2" x2="400" y2="265.9"/>
	<line class="st9" x1="430.4" y1="260.2" x2="430.4" y2="265.9"/>
	<line class="st9" x1="460.8" y1="260.2" x2="460.8" y2="265.9"/>
	<line class="st9" x1="491.2" y1="260.2" x2="491.2" y2="265.9"/>
	<line class="st9" x1="521.6" y1="260.2" x2="521.6" y2="265.9"/>
	<rect x="500.4" y="269.2" class="st10" width="20.2" height="17.8"/>
	<text transform="matrix(1 0 0 1 500.4009 276.703)" class="st11 st12 st13">19</text>
	<rect x="470.2" y="269.2" class="st10" width="20.2" height="17.8"/>
	<text transform="matrix(1 0 0 1 470.2173 276.703)" class="st11 st12 st13">18</text>
	<rect x="440" y="269.2" class="st10" width="20.2" height="17.8"/>
	<text transform="matrix(1 0 0 1 440.0338 276.703)" class="st11 st12 st13">17</text>
	<rect x="409.9" y="269.2" class="st10" width="20.2" height="17.8"/>
	<text transform="matrix(1 0 0 1 409.8502 276.703)" class="st11 st12 st13">16</text>
	<rect x="379.7" y="269.2" class="st10" width="20.2" height="17.8"/>
	<text transform="matrix(1 0 0 1 379.6666 276.703)" class="st11 st12 st13">15</text>
	<rect x="349.5" y="269.2" class="st10" width="20.2" height="17.8"/>
	<text transform="matrix(1 0 0 1 349.483 276.703)" class="st11 st12 st13">14</text>
	<rect x="319.3" y="269.2" class="st10" width="20.2" height="17.8"/>
	<text transform="matrix(1 0 0 1 319.2994 276.703)" class="st11 st12 st13">13</text>
	<rect x="289.1" y="269.2" class="st10" width="20.2" height="17.8"/>
	<text transform="matrix(1 0 0 1 289.1158 276.703)" class="st11 st12 st13">12</text>
	<rect x="258.9" y="269.2" class="st10" width="20.2" height="17.8"/>
	<text transform="matrix(1 0 0 1 258.9322 276.703)" class="st11 st12 st13">11</text>
	<rect x="228.8" y="269.2" class="st10" width="20.2" height="17.8"/>
	<text transform="matrix(1 0 0 1 228.7486 276.703)" class="st11 st12 st13">10</text>
	<rect x="198.6" y="269.2" class="st10" width="20.2" height="17.8"/>
	<text transform="matrix(1 0 0 1 198.5645 276.703)" class="st11 st12 st13">09</text>
	<rect x="168.4" y="269.2" class="st10" width="20.2" height="17.8"/>
	<text transform="matrix(1 0 0 1 168.3809 276.703)" class="st11 st12 st13">08</text>
	<line class="st14" x1="384.2" y1="198.7" x2="323.5" y2="198.7"/>
	<line class="st14" x1="321.5" y1="63.5" x2="296.3" y2="63.5"/>
	<line class="st15" x1="429.8" y1="73.6" x2="419.8" y2="73.6"/>
	<line class="st15" x1="460.2" y1="99.7" x2="448.3" y2="99.7"/>
	<line class="st15" x1="472.9" y1="82.4" x2="461" y2="82.4"/>
	<line class="st15" x1="490.8" y1="45.5" x2="481" y2="45.5"/>
	<line class="st14" x1="259.5" y1="63.5" x2="156.8" y2="63.5"/>
	<line class="st15" x1="503.9" y1="158.2" x2="490.4" y2="158.2"/>
	<g class="st0">
		<g>
			<line class="st1" x1="71.4" y1="69.4" x2="72.2" y2="70.7"/>
			<line class="st16" x1="73.5" y1="72.9" x2="78.1" y2="80.5"/>
			<line class="st1" x1="78.8" y1="81.6" x2="79.5" y2="82.9"/>
			<g>
				<path d="M69.9,70.4c-0.5-0.9-0.2-2.1,0.6-2.6s2.1-0.2,2.6,0.6s0.2,2.1-0.6,2.6S70.4,71.3,69.9,70.4z"/>
			</g>
		</g>
	</g>
	<line class="st14" x1="418.3" y1="63.5" x2="411.9" y2="63.5"/>
	<g class="st0">
		<g>
			<line class="st1" x1="132.9" y1="73.2" x2="134.4" y2="73.2"/>
			<line class="st17" x1="137.5" y1="73.2" x2="414.5" y2="73.2"/>
			<line class="st1" x1="416" y1="73.2" x2="417.5" y2="73.2"/>
		</g>
	</g>
	<g class="st0">
		<g>
			<line class="st1" x1="119.2" y1="61.4" x2="120.3" y2="62.3"/>
			<line class="st18" x1="122.6" y1="64.1" x2="130.6" y2="70.4"/>
			<line class="st1" x1="131.8" y1="71.3" x2="132.9" y2="72.2"/>
			<g>
				<path d="M118.1,62.9c-0.8-0.6-1-1.8-0.3-2.6s1.8-1,2.6-0.3s1,1.8,0.3,2.6S118.9,63.6,118.1,62.9z"/>
			</g>
		</g>
	</g>
	<line class="st15" x1="440.8" y1="229.6" x2="430.8" y2="229.6"/>
	<line class="st19" x1="448.3" y1="184.5" x2="441.9" y2="184.5"/>
	<line class="st14" x1="478" y1="51.5" x2="473.9" y2="51.5"/>
	<g class="st0">
		<g>
			<line class="st1" x1="132.9" y1="52.2" x2="134.4" y2="52.2"/>
			<line class="st20" x1="137.5" y1="52.2" x2="468.1" y2="51.5"/>
			<line class="st1" x1="469.6" y1="51.5" x2="471.1" y2="51.5"/>
		</g>
	</g>
	<g class="st0">
		<g>
			<line class="st1" x1="124.3" y1="57.9" x2="125.6" y2="57.1"/>
			<line class="st21" x1="127.6" y1="55.7" x2="130.7" y2="53.7"/>
			<line class="st1" x1="131.7" y1="53.1" x2="132.9" y2="52.2"/>
			<g>
				<path d="M125.4,59.4c-0.9,0.6-2,0.3-2.6-0.5c-0.6-0.9-0.3-2,0.5-2.6s2-0.3,2.6,0.5C126.5,57.7,126.3,58.8,125.4,59.4z"/>
			</g>
		</g>
	</g>
	<line class="st19" x1="511.3" y1="184.5" x2="504.9" y2="184.5"/>
	<line class="st14" x1="293.5" y1="57.5" x2="263.2" y2="57.5"/>
	<g class="st0">
		<g>
			<line class="st1" x1="323.6" y1="63.5" x2="325.1" y2="63.5"/>
			<line class="st22" x1="328.2" y1="63.5" x2="406.4" y2="63.5"/>
			<line class="st1" x1="407.9" y1="63.5" x2="409.4" y2="63.5"/>
		</g>
	</g>
	<rect x="320.2" y="204.2" class="st10" width="66.6" height="11.3"/>
	<text transform="matrix(1 0 0 1 331.1324 208.8007)" class="st23 st24 st25">UWC Costa Rica</text>
	<rect x="403.2" y="234.2" class="st10" width="66.6" height="11.3"/>
	<text transform="matrix(1 0 0 1 432.1285 238.8007)" class="st23 st24 st25">4th</text>
	<rect x="412.2" y="189.2" class="st10" width="66.6" height="11.3"/>
	<text transform="matrix(1 0 0 1 434.9703 193.8007)" class="st23 st24 st25">Amplify</text>
	<rect x="475.2" y="189.2" class="st10" width="66.6" height="11.3"/>
	<text transform="matrix(1 0 0 1 488.8023 193.8007)" class="st23 st24 st25">Recurse Center</text>
	<rect x="465.2" y="163.2" class="st10" width="66.6" height="11.3"/>
	<text transform="matrix(1 0 0 1 494.1285 167.8007)" class="st23 st24 st25">8th</text>
	<rect x="365.2" y="163.2" class="st10" width="66.6" height="11.3"/>
	<text transform="matrix(1 0 0 1 385.1255 167.8007)" class="st23 st24 st25">1st &amp; 2nd semester at Minerva</text>
	<rect x="421.2" y="105.2" class="st10" width="66.6" height="11.3"/>
	<text transform="matrix(1 0 0 1 450.1285 109.8007)" class="st23 st24 st25">5th</text>
	<rect x="433.2" y="87.2" class="st10" width="66.6" height="11.3"/>
	<text transform="matrix(1 0 0 1 462.1285 91.8007)" class="st23 st24 st25">6th</text>
	<rect x="392.2" y="77.2" class="st10" width="66.6" height="11.3"/>
	<text transform="matrix(1 0 0 1 420.9605 81.8007)" class="st23 st24 st25">3rd</text>
	<rect x="244.2" y="61.2" class="st10" width="66.6" height="11.3"/>
	<text transform="matrix(1 0 0 1 272.7994 65.8007)" class="st23 st24 st25">ØU</text>
	<rect x="266.2" y="67.2" class="st10" width="85.6" height="11.3"/>
	<text transform="matrix(1 0 0 1 293.4683 71.8007)" class="st23 st24 st25">High School</text>
	<line class="st15" x1="411.8" y1="158.2" x2="384.2" y2="158.2"/>
	<rect x="453.2" y="36.2" class="st10" width="66.6" height="11.3"/>
	<text transform="matrix(1 0 0 1 482.1285 40.8007)" class="st23 st24 st25">7th</text>
	<rect x="443.2" y="56.2" class="st10" width="66.6" height="11.3"/>
	<text transform="matrix(1 0 0 1 464.9625 60.8007)" class="st23 st24 st25">DC Labs</text>
	<rect x="165.2" y="67.2" class="st10" width="85.6" height="11.3"/>
	<text transform="matrix(1 0 0 1 197.4683 71.8007)" class="st23 st24 st25">Aalborg</text>
	<rect x="369.2" y="67.2" class="st10" width="85.6" height="11.3"/>
	<text transform="matrix(1 0 0 1 406.3072 71.8007)" class="st23 st24 st25">HIA</text>
</g>
</svg>
